<?xml version="1.0" encoding="UTF-8"?>
<!-- Created with Inkscape (http://www.inkscape.org/) -->
<svg width="135.05mm" height="20.849mm" version="1.1" viewBox="0 0 135.05 20.849" xmlns="http://www.w3.org/2000/svg" xmlns:cc="http://creativecommons.org/ns#" xmlns:dc="http://purl.org/dc/elements/1.1/" xmlns:rdf="http://www.w3.org/1999/02/22-rdf-syntax-ns#">
 <defs>
  <clipPath id="clipPath54-8-3">
   <path d="m325 730.28h185.62v-371.24h-185.62z"/>
  </clipPath>
 </defs>
 <metadata>
  <rdf:RDF>
   <cc:Work rdf:about="">
    <dc:format>image/svg+xml</dc:format>
    <dc:type rdf:resource="http://purl.org/dc/dcmitype/StillImage"/>
    <dc:title/>
   </cc:Work>
  </rdf:RDF>
 </metadata>
 <g transform="translate(-33.775 -38.623)">
  <text x="85.615829" y="58.764187" fill="#ef6c6c" font-family="'Myriad Pro'" font-size="28.321px" font-weight="bold" letter-spacing="0px" stroke-width=".70802" word-spacing="0px" style="font-feature-settings:normal;font-variant-caps:normal;font-variant-ligatures:normal;font-variant-numeric:normal;line-height:1.25" xml:space="preserve"><tspan x="85.615829" y="58.764187" fill="#ef6c6c" font-family="'Myriad Pro'" font-size="28.321px" font-weight="bold" letter-spacing="-1.9923px" stroke-width=".70802" word-spacing="-.46567px" style="font-feature-settings:normal;font-variant-caps:normal;font-variant-ligatures:normal;font-variant-numeric:normal">    IALOG</tspan></text>
  <g transform="matrix(.05616 0 0 -.05616 70.843 79.636)">
   <g clip-path="url(#clipPath54-8-3)">
    <g transform="translate(325 730.28)" fill="#ef6c6c">
     <path d="m0 0c102.52 0 185.62-83.104 185.62-185.62s-83.104-185.62-185.62-185.62z" fill="#ef6c6c"/>
    </g>
   </g>
  </g>
  <g transform="matrix(.05616 0 0 -.05616 97.605 49.317)">
   <path d="m0 0c4.643-24.333-12.062-47.964-37.309-52.78-25.248-4.817-49.479 11.004-54.121 35.337" fill="#fff"/>
  </g>
  <g transform="matrix(.05616 0 0 -.05616 96.031 47.945)">
   <path d="m0 0c-2.692 11.447 0.346 21.954 6.785 23.468s13.84-6.537 16.533-17.984" fill="none" stroke="#484965" stroke-linecap="round" stroke-miterlimit="10" stroke-width="7.406"/>
  </g>
  <g transform="matrix(.05616 0 0 -.05616 92.575 48.641)">
   <path d="m0 0c-1.847 11.613 2.708 21.989 10.173 23.177 7.466 1.187 15.015-7.265 16.862-18.878" fill="none" stroke="#484965" stroke-linecap="round" stroke-miterlimit="10" stroke-width="7.406"/>
  </g>
  <text x="31.905806" y="58.605831" fill="#4dadef" font-family="'Myriad Pro'" font-size="28.321px" font-weight="bold" letter-spacing="0px" stroke-width=".70802" word-spacing="0px" style="font-feature-settings:normal;font-variant-caps:normal;font-variant-ligatures:normal;font-variant-numeric:normal;line-height:1.25" xml:space="preserve"><tspan x="31.905806" y="58.605831" fill="#4dadef" font-family="'Myriad Pro'" font-size="28.321px" font-weight="bold" letter-spacing="-1.9923px" stroke-width=".70802" word-spacing="-.46567px" style="font-feature-settings:normal;font-variant-caps:normal;font-variant-ligatures:normal;font-variant-numeric:normal">NEW</tspan></text>
 </g>
</svg>
